<svg xmlns="http://www.w3.org/2000/svg" viewBox="0 0 538.39 169.45"><defs><style>.cls-1{font-size:72px;}.cls-1,.cls-4{fill:#231f20;font-family:FrenchScriptMT, French Script MT;}.cls-2{letter-spacing:0.02em;}.cls-3{letter-spacing:-0.04em;}.cls-4{font-size:150px;}.cls-5{letter-spacing:-0.01em;}.cls-6{fill:#010101;}</style></defs><g id="Layer_2" data-name="Layer 2"><g id="Layer_1-2" data-name="Layer 1"><text class="cls-1" transform="translate(197.81 115.49)">ale<tspan class="cls-2" x="57.02" y="0">y</tspan><tspan class="cls-3" x="83.6" y="0">’</tspan><tspan x="94.4" y="0">s</tspan></text><text class="cls-4" transform="translate(127.24 123.67)">C</text><text class="cls-4" transform="translate(321.95 123.67)">C</text><text class="cls-1" transform="translate(394 115.49)"><tspan class="cls-5">a</tspan><tspan x="23.84" y="0">toring</tspan></text><path class="cls-6" d="M29.47,34.81a12.66,12.66,0,0,0-1.39,6.48A12.59,12.59,0,0,0,28.7,46c.92,3,1.12,6.54.48,8.63-.33,1.11,1.63-1.12,2.45-2.75,1.56-3.19,1.54-6.94-.11-11a19.11,19.11,0,0,1-1.41-6.47L30,33.58Z"/><path class="cls-6" d="M79.07,34.72A18.52,18.52,0,0,1,77.66,41a13.2,13.2,0,0,0,0,10.84c.7,1.41,2.84,3.92,2.47,2.87-.73-1.92-.53-5.75.42-8.75a16.55,16.55,0,0,0,.57-7.11c-.29-1.57-1.43-4.85-1.81-5.07C79.16,33.71,79.07,34.13,79.07,34.72Z"/><path class="cls-6" d="M51.89,48.23a9,9,0,0,0-6.27,8l-.14,1.52-2.42.62A46.38,46.38,0,0,0,8.11,101.53L8,103.4h93.13l0-1.87c-.26-12.34-6.36-25-16-33.28a45.81,45.81,0,0,0-18.9-9.89l-2.42-.62-.13-1.52A9,9,0,0,0,51.89,48.23Zm-10,17.84a3,3,0,0,1,1.79,4.32c-.56,1.1-.84,1.32-3.18,2.62a31.73,31.73,0,0,0-13,13.85c-1.05,2.2-2,3.28-3.21,3.55-2.32.5-4-1.28-3.68-3.84.29-2.11,3.77-8,6.72-11.34,3.37-3.81,9.16-8.08,12.27-9.07A3,3,0,0,1,41.87,66.07Z"/><path class="cls-6" d="M10,53.4a15.37,15.37,0,0,0-.51,11.35,12.6,12.6,0,0,1,.68,4.73,15.9,15.9,0,0,1-.22,3.17l-.24.77.91-.88a10.64,10.64,0,0,0,2.66-5.74,14.29,14.29,0,0,0-1.12-7.67,20.18,20.18,0,0,1-1.39-6.5C10.68,51.88,10.66,51.91,10,53.4Z"/><path class="cls-6" d="M98.3,54.35A14.71,14.71,0,0,1,97.16,59c-1.37,3.39-1.65,5.74-1,8.65a9.17,9.17,0,0,0,2.38,4.69c.6.62,1,1,1,.88a13.42,13.42,0,0,1-.35-1.91,16.24,16.24,0,0,1,.79-7.05,15.23,15.23,0,0,0-.64-10.82l-.7-1.52Z"/><path class="cls-6" d="M6.1,109.7a8.4,8.4,0,0,0-5,4.12A13.67,13.67,0,0,0,0,118.21v.72H109.25v-.66c0-3.24-2.25-7-4.91-8.17l-1.15-.53-48.12,0C27.47,109.53,6.59,109.59,6.1,109.7Z"/></g></g></svg>