<svg xmlns="http://www.w3.org/2000/svg" viewBox="0 0 303.94 193.7"><defs><style>.cls-1{fill:#89181a;}.cls-2{fill:#e6e7e8;}.cls-3{font-size:18px;fill:#fff;font-family:Roboto-Regular, Roboto;}</style></defs><g id="Layer_2" data-name="Layer 2"><g id="Layer_1-2" data-name="Layer 1"><rect class="cls-1" width="303.94" height="193.7" rx="9.84"/><path class="cls-2" d="M91,73.6H83.4v7.85h-4V62.25H91.94v3.2H83.4v5H91Z"/><path class="cls-2" d="M98.44,81.45h-4V62.25h4Z"/><path class="cls-2" d="M109.21,74.42h-3.15v7h-4V62.25h7.13a8.07,8.07,0,0,1,5.25,1.52,5.23,5.23,0,0,1,1.84,4.28,5.9,5.9,0,0,1-.85,3.28,5.84,5.84,0,0,1-2.57,2.09l4.15,7.84v.19h-4.25Zm-3.15-3.2h3.19a3.3,3.3,0,0,0,2.31-.76,2.73,2.73,0,0,0,.82-2.09,2.92,2.92,0,0,0-.77-2.14,3.22,3.22,0,0,0-2.37-.78h-3.18Z"/><path class="cls-2" d="M129.29,76.41a2,2,0,0,0-.79-1.72,10.47,10.47,0,0,0-2.85-1.27,19.86,19.86,0,0,1-3.25-1.31c-2.18-1.18-3.27-2.76-3.27-4.76a4.65,4.65,0,0,1,.87-2.77,5.76,5.76,0,0,1,2.52-1.91,9.63,9.63,0,0,1,3.69-.68,8.55,8.55,0,0,1,3.66.74,5.89,5.89,0,0,1,2.5,2.1,5.56,5.56,0,0,1,.89,3.09h-3.95a2.58,2.58,0,0,0-.84-2,3.39,3.39,0,0,0-2.33-.73,3.61,3.61,0,0,0-2.25.61,1.94,1.94,0,0,0-.81,1.62,1.85,1.85,0,0,0,1,1.56,10.25,10.25,0,0,0,2.77,1.19,12.08,12.08,0,0,1,4.92,2.52,5,5,0,0,1,1.54,3.74,4.61,4.61,0,0,1-1.89,3.91,8.18,8.18,0,0,1-5.07,1.42,9.77,9.77,0,0,1-4-.81,6.37,6.37,0,0,1-2.78-2.22,5.66,5.66,0,0,1-.95-3.27h4c0,2.12,1.27,3.17,3.8,3.17a3.71,3.71,0,0,0,2.2-.57A1.85,1.85,0,0,0,129.29,76.41Z"/><path class="cls-2" d="M150.39,65.45h-5.88v16h-4v-16h-5.8v-3.2h15.64Z"/><path class="cls-2" d="M172.23,65.45h-5.88v16H162.4v-16h-5.8v-3.2h15.63Z"/><path class="cls-2" d="M178.69,81.45h-3.95V62.25h3.95Z"/><path class="cls-2" d="M187.52,62.25l4.93,13.92,4.91-13.92h5.19v19.2h-4V76.2l.39-9.06L193.8,81.45h-2.72l-5.16-14.3.39,9v5.25h-3.95V62.25Z"/><path class="cls-2" d="M217.56,73.13H210v5.14h8.91v3.18H206V62.25h12.84v3.2H210V70h7.6Z"/><path class="cls-2" d="M28.31,107.45A6.81,6.81,0,0,1,26,112.33a8,8,0,0,1-5.44,1.78,7.22,7.22,0,0,1-5.81-2.49,10.18,10.18,0,0,1-2.12-6.82v-1.17a11.52,11.52,0,0,1,1-4.88,7.39,7.39,0,0,1,2.79-3.24,7.81,7.81,0,0,1,4.21-1.12A7.8,7.8,0,0,1,26,96.17a7.25,7.25,0,0,1,2.35,5h-4a4,4,0,0,0-1-2.69,3.83,3.83,0,0,0-2.71-.84,3.34,3.34,0,0,0-3,1.42,8,8,0,0,0-1,4.39v1.45a8.58,8.58,0,0,0,.94,4.55,3.3,3.3,0,0,0,3,1.44,3.88,3.88,0,0,0,2.73-.84,3.8,3.8,0,0,0,1-2.59Z"/><path class="cls-2" d="M45.44,94.65v12.64a6.5,6.5,0,0,1-2,5,7.62,7.62,0,0,1-5.39,1.83,7.67,7.67,0,0,1-5.34-1.78,6.34,6.34,0,0,1-2-4.89V94.65h3.95v12.67a3.67,3.67,0,0,0,.9,2.75,3.51,3.51,0,0,0,2.5.86c2.23,0,3.35-1.17,3.39-3.5V94.65Z"/><path class="cls-2" d="M58.64,108.81a2,2,0,0,0-.8-1.72A10.37,10.37,0,0,0,55,105.82a20,20,0,0,1-3.26-1.31c-2.18-1.18-3.27-2.76-3.27-4.76A4.59,4.59,0,0,1,49.35,97a5.65,5.65,0,0,1,2.52-1.91,9.58,9.58,0,0,1,3.68-.68,8.78,8.78,0,0,1,3.67.74,5.86,5.86,0,0,1,2.49,2.1,5.48,5.48,0,0,1,.89,3.09h-4a2.6,2.6,0,0,0-.83-2,3.42,3.42,0,0,0-2.34-.73,3.65,3.65,0,0,0-2.25.61,1.93,1.93,0,0,0-.8,1.62,1.83,1.83,0,0,0,.94,1.56,10.4,10.4,0,0,0,2.77,1.19A12.08,12.08,0,0,1,61.06,105a5,5,0,0,1,1.54,3.74,4.63,4.63,0,0,1-1.88,3.91,8.23,8.23,0,0,1-5.08,1.42,9.8,9.8,0,0,1-4-.81,6.43,6.43,0,0,1-2.78-2.22,5.74,5.74,0,0,1-.95-3.27h4c0,2.12,1.26,3.17,3.79,3.17a3.69,3.69,0,0,0,2.2-.57A1.86,1.86,0,0,0,58.64,108.81Z"/><path class="cls-2" d="M79.73,97.85H73.85v16h-4v-16h-5.8v-3.2H79.73Z"/><path class="cls-2" d="M97.38,104.68a11.54,11.54,0,0,1-1,5,7.48,7.48,0,0,1-2.87,3.3A8.45,8.45,0,0,1,85,113a7.53,7.53,0,0,1-2.9-3.27,11.21,11.21,0,0,1-1-4.9v-1a11.41,11.41,0,0,1,1-5,7.6,7.6,0,0,1,2.88-3.31,8.48,8.48,0,0,1,8.53,0,7.56,7.56,0,0,1,2.89,3.31,11.54,11.54,0,0,1,1,5Zm-4-.87a8.11,8.11,0,0,0-1.08-4.59,3.82,3.82,0,0,0-6.15,0,7.9,7.9,0,0,0-1.1,4.54v.93a8.18,8.18,0,0,0,1.08,4.56,3.5,3.5,0,0,0,3.11,1.63,3.47,3.47,0,0,0,3.06-1.57,8.07,8.07,0,0,0,1.08-4.55Z"/><path class="cls-2" d="M105.42,94.65l4.93,13.92,4.91-13.92h5.19v19.2h-4V108.6l.39-9.06-5.18,14.31H109l-5.16-14.3.39,9v5.25h-3.95V94.65Z"/><path class="cls-2" d="M135.46,105.53h-7.6v5.14h8.91v3.18H123.91V94.65h12.84v3.2h-8.89v4.58h7.6Z"/><path class="cls-2" d="M146.2,106.82h-3.15v7h-4V94.65h7.14a8.06,8.06,0,0,1,5.24,1.52,5.23,5.23,0,0,1,1.85,4.28,5.36,5.36,0,0,1-3.43,5.37l4.15,7.84v.19H149.8Zm-3.15-3.2h3.19a3.31,3.31,0,0,0,2.31-.76,2.73,2.73,0,0,0,.82-2.09,2.89,2.89,0,0,0-.78-2.14,3.18,3.18,0,0,0-2.36-.78h-3.18Z"/><path class="cls-2" d="M163.05,113.85V94.65H169a9,9,0,0,1,4.53,1.14A7.92,7.92,0,0,1,176.6,99a10,10,0,0,1,1.12,4.78v.89a10,10,0,0,1-1.1,4.76,7.91,7.91,0,0,1-3.1,3.23,9.14,9.14,0,0,1-4.53,1.16Zm3.95-16v12.82h1.91a4.31,4.31,0,0,0,3.55-1.52,6.78,6.78,0,0,0,1.25-4.34v-1a7,7,0,0,0-1.21-4.44A4.3,4.3,0,0,0,169,97.85Z"/><path class="cls-2" d="M184.8,113.85h-4V94.65h4Z"/><path class="cls-2" d="M198.42,108.81a2,2,0,0,0-.79-1.72,10.62,10.62,0,0,0-2.85-1.27,19.86,19.86,0,0,1-3.25-1.31c-2.18-1.18-3.27-2.76-3.27-4.76a4.65,4.65,0,0,1,.87-2.77,5.76,5.76,0,0,1,2.52-1.91,9.58,9.58,0,0,1,3.68-.68,8.71,8.71,0,0,1,3.67.74,5.89,5.89,0,0,1,2.5,2.1,5.56,5.56,0,0,1,.89,3.09h-4a2.57,2.57,0,0,0-.83-2,3.39,3.39,0,0,0-2.33-.73,3.66,3.66,0,0,0-2.26.61,2,2,0,0,0-.8,1.62,1.86,1.86,0,0,0,.94,1.56,10.49,10.49,0,0,0,2.78,1.19,12.08,12.08,0,0,1,4.92,2.52,5,5,0,0,1,1.54,3.74,4.61,4.61,0,0,1-1.89,3.91,8.2,8.2,0,0,1-5.07,1.42,9.85,9.85,0,0,1-4-.81,6.4,6.4,0,0,1-2.77-2.22,5.67,5.67,0,0,1-1-3.27h4c0,2.12,1.27,3.17,3.8,3.17a3.71,3.71,0,0,0,2.2-.57A1.85,1.85,0,0,0,198.42,108.81Z"/><path class="cls-2" d="M220.13,107.45a6.81,6.81,0,0,1-2.28,4.88,8,8,0,0,1-5.44,1.78,7.22,7.22,0,0,1-5.81-2.49,10.18,10.18,0,0,1-2.11-6.82v-1.17a11.52,11.52,0,0,1,1-4.88,7.39,7.39,0,0,1,2.79-3.24,8.73,8.73,0,0,1,9.56.66,7.25,7.25,0,0,1,2.35,5h-4a4,4,0,0,0-1-2.69,3.83,3.83,0,0,0-2.71-.84,3.36,3.36,0,0,0-3,1.42,8,8,0,0,0-1,4.39v1.45a8.48,8.48,0,0,0,.95,4.55,3.27,3.27,0,0,0,3,1.44,3.88,3.88,0,0,0,2.73-.84,3.76,3.76,0,0,0,1-2.59Z"/><path class="cls-2" d="M238.5,104.68a11.69,11.69,0,0,1-1,5,7.54,7.54,0,0,1-2.87,3.3,8.47,8.47,0,0,1-8.54,0,7.59,7.59,0,0,1-2.9-3.27,11.35,11.35,0,0,1-1-4.9v-1a11.55,11.55,0,0,1,1-5,7.62,7.62,0,0,1,2.89-3.31,8.48,8.48,0,0,1,8.53,0,7.62,7.62,0,0,1,2.89,3.31,11.54,11.54,0,0,1,1,5Zm-4-.87a8.11,8.11,0,0,0-1.08-4.59,3.83,3.83,0,0,0-6.16,0,8,8,0,0,0-1.09,4.54v.93a8.18,8.18,0,0,0,1.08,4.56,3.5,3.5,0,0,0,3.11,1.63,3.47,3.47,0,0,0,3.06-1.57,8.15,8.15,0,0,0,1.08-4.55Z"/><path class="cls-2" d="M255.9,94.65v12.64a6.5,6.5,0,0,1-2,5,8.86,8.86,0,0,1-10.72,0,6.35,6.35,0,0,1-2-4.89V94.65h3.95v12.67a3.63,3.63,0,0,0,.91,2.75,3.47,3.47,0,0,0,2.49.86q3.35,0,3.39-3.5V94.65Z"/><path class="cls-2" d="M274.75,113.85H270.8l-7.7-12.63v12.63h-4V94.65h4l7.71,12.66V94.65h3.94Z"/><path class="cls-2" d="M292.66,97.85h-5.88v16h-4v-16H277v-3.2h15.64Z"/><text class="cls-3" transform="translate(55.96 154.42)">See the offer for details.</text></g></g></svg>