<svg xmlns="http://www.w3.org/2000/svg" viewBox="0 0 399.83 47.98"><defs><style>.cls-1{fill:#d9fbff;}</style></defs><g id="Layer_2" data-name="Layer 2"><g id="Layer_1-2" data-name="Layer 1"><path class="cls-1" d="M36.39,19.92Q37.85,30.25,34.2,37a16.41,16.41,0,0,1-2.92,3.82c-.78.77-2,1.84-3.59,3.19l-.86.76c-.29.24-.53.47-.73.67l-.83.69A10.47,10.47,0,0,1,22.94,48a16.73,16.73,0,0,0-5.34-2.19,32.11,32.11,0,0,0-15.31.1,18.69,18.69,0,0,1,9.63-5,10,10,0,0,0,.2-3.69l-1.5-13.44a15.9,15.9,0,0,1,.17-5.05,14,14,0,0,1,1.53-4.42,11,11,0,0,1,3.62-4A29.54,29.54,0,0,1,7.79,8.07Q2.83,6.11,0,0C.13.31,1.07.9,2.82,1.78A19.61,19.61,0,0,0,9.1,3.55c1,.14,3.73.28,8.35.45s8.28,1.06,11,2.67a16.69,16.69,0,0,1,5,4.69A19.48,19.48,0,0,1,36.39,19.92ZM30,36.69q.86-4.82-.53-13l-.2-1.32L29,21c-.2-1.06-.41-2-.63-2.75a11.73,11.73,0,0,0-2.49-4.85,8.84,8.84,0,0,0-2.13-1.59,6,6,0,0,0-2.49-.8l-2-.27c-1.12,2-1.59,4.92-1.39,8.64l.3,3.48.3,3.49.13,1.49.13,1.5a25.75,25.75,0,0,1,.14,3A12,12,0,0,1,17.37,38c-.62,1.06-1.1,1.82-1.43,2.29A25.81,25.81,0,0,1,26.36,42.1C28.44,40.29,29.64,38.48,30,36.69Z"/><path class="cls-1" d="M53,15.87a8.42,8.42,0,0,1,4.29,3.35l-5,3.72a3.15,3.15,0,0,0-1.89-2.42l-3.22,2.36V36.66a5.41,5.41,0,0,0,.36,2,4.81,4.81,0,0,0,.83,1.32A4.45,4.45,0,0,0,49.54,41l-4.95,3.65,0,0h0l-.07,0-.17-.1-.23-.13c-.2-.13-.39-.27-.56-.4s-.45-.36-.67-.56a5.46,5.46,0,0,1-1.19-1.63,5,5,0,0,1-.57-2.36V23.91a4.8,4.8,0,0,0-1.19-3.26,4.59,4.59,0,0,0-1.2-1L43.6,16h0l.1.07.13.06.2.1.5.34a6.54,6.54,0,0,1,.56.46,5.86,5.86,0,0,1,1.17,1.33,5,5,0,0,1,.76,1.92Z"/><path class="cls-1" d="M62.69,32.84a13.25,13.25,0,0,0,.86,2.22,9.62,9.62,0,0,0,1.89,2.49q3.09,2.82,8.34,1.93L67,44.66c-.28,0-.58-.06-.89-.1s-.8-.16-1.2-.27A9.94,9.94,0,0,1,62,42.9q-3.78-2.65-4.81-8.67A21.38,21.38,0,0,1,57.31,26Q59,17.36,66.9,15.31l6.64,9.19-.16.14Zm.76-13.08q-2.13,3.68-1.19,10.62L68,26Z"/><path class="cls-1" d="M93.5,37.32a3.12,3.12,0,0,0,.4,1.53A5.25,5.25,0,0,0,94.7,40a7.37,7.37,0,0,0,1.22,1L91,44.66a5.88,5.88,0,0,1-2.1-2.13,11.29,11.29,0,0,1-1.06-2.45l-6.17,4.58q-4.49-1.75-5.18-5.81h0a9.35,9.35,0,0,1-.16-1.53h0V26a5.73,5.73,0,0,1,1.86-3.75A19.78,19.78,0,0,1,82.24,19a40.09,40.09,0,0,1,6-3.12,8.26,8.26,0,0,1,4.25,3.29,7.37,7.37,0,0,1,1.06,3.95ZM87.49,23c0-.95-.64-1.79-1.93-2.52q-3.18,2.36-3.18,5.05V37.49q0,1.42,1.92,2.52l3.16-2.32Z"/><path class="cls-1" d="M116.38,36.72A4.69,4.69,0,0,0,118.73,41l-4.91,3.65,0,0h0a7.88,7.88,0,0,1-3.42-6.54V23q0-1.42-1.89-2.52l-3.22,2.36V36.72A4.7,4.7,0,0,0,107.58,41l-4.92,3.65,0,0h0a7.87,7.87,0,0,1-3.46-6.54V23.91A4.75,4.75,0,0,0,98,20.65a4.59,4.59,0,0,0-1.2-1L101.67,16h0l.1.07.13.06.2.1.5.34c.2.15.39.3.57.46a6.06,6.06,0,0,1,1.16,1.33,4.81,4.81,0,0,1,.76,1.92l5.94-4.38A7.78,7.78,0,0,1,116,20.52l6.24-4.65a8.26,8.26,0,0,1,4.25,3.29,7.37,7.37,0,0,1,1.06,3.95V36.72A4.69,4.69,0,0,0,129.89,41L125,44.66l0,0h0a7.86,7.86,0,0,1-3.45-6.54V23c0-.95-.63-1.79-1.9-2.52l-3.18,2.36Z"/><path class="cls-1" d="M137.29,32.84a13.29,13.29,0,0,0,.87,2.22,9.62,9.62,0,0,0,1.89,2.49q3.09,2.82,8.33,1.93l-6.77,5.18c-.29,0-.59-.06-.9-.1s-.79-.16-1.19-.27a9.82,9.82,0,0,1-2.92-1.39q-3.79-2.65-4.82-8.67a21.59,21.59,0,0,1,.14-8.23q1.72-8.64,9.59-10.69l6.64,9.19-.16.14Zm.77-13.08q-2.13,3.68-1.2,10.62L142.57,26Z"/><path class="cls-1" d="M163.53,15.87a8.4,8.4,0,0,1,4.28,3.35l-5,3.72a3.15,3.15,0,0,0-1.89-2.42l-3.22,2.36V36.66a5.21,5.21,0,0,0,.37,2,4.59,4.59,0,0,0,.83,1.32A4.42,4.42,0,0,0,160.07,41l-4.94,3.65,0,0h0l-.07,0-.16-.1-.24-.13c-.2-.13-.38-.27-.56-.4s-.44-.36-.66-.56a5.68,5.68,0,0,1-1.2-1.63,5,5,0,0,1-.56-2.36V23.91a4.76,4.76,0,0,0-1.2-3.26,4.59,4.59,0,0,0-1.2-1L154.13,16h0l.1.07.13.06.2.1.5.34c.2.15.39.3.57.46a6.06,6.06,0,0,1,1.16,1.33,4.81,4.81,0,0,1,.76,1.92Z"/><path class="cls-1" d="M210.89,30.42H203.3l-3.92,9.77a6,6,0,0,0-.41,1.3c0,.39.29.58.86.58v.27H196v-.27a2.17,2.17,0,0,0,1.3-.37,4.83,4.83,0,0,0,1.16-2l9.39-23.67h.46l9.23,22.86a10,10,0,0,0,.71,1.67,2.3,2.3,0,0,0,2.17,1.48v.27h-6.05v-.27c.55,0,.83-.21.83-.65a4.25,4.25,0,0,0-.41-1.4,1,1,0,0,1-.12-.23c0-.12,0-.18-.05-.18Zm-7.35-.72h7l-3.5-8.83Z"/><path class="cls-1" d="M242.9,17.75l1,2.74h-.26a12.14,12.14,0,0,0-8.86-3.75,11.77,11.77,0,0,0-8.54,3.15A10.16,10.16,0,0,0,223,27.5a17.21,17.21,0,0,0,1.45,6.35A13.39,13.39,0,0,0,229,39.74a12.32,12.32,0,0,0,7.57,2.32,18,18,0,0,0,5.72-.94,9.29,9.29,0,0,0,4.18-2.53l.23.07-1.81,2.78q-4.4.95-5.71,1.13a29.12,29.12,0,0,1-3.5.17q-8.15,0-11.65-3.77a12.78,12.78,0,0,1-3.51-9,13.88,13.88,0,0,1,1.81-6.82A13,13,0,0,1,227.5,18a15.66,15.66,0,0,1,7.75-1.89,15.94,15.94,0,0,1,3.77.39,22,22,0,0,1,2.65.82l1.16.44S242.89,17.73,242.9,17.75Z"/><path class="cls-1" d="M262.05,30.42h-7.6l-3.92,9.77a6,6,0,0,0-.41,1.3c0,.39.29.58.86.58v.27h-3.84v-.27a2.21,2.21,0,0,0,1.3-.37,4.84,4.84,0,0,0,1.15-2L259,16.06h.46l9.24,22.86a9.05,9.05,0,0,0,.71,1.67,2.28,2.28,0,0,0,2.16,1.48v.27H265.5v-.27c.56,0,.83-.21.83-.65a4.16,4.16,0,0,0-.4-1.4.7.7,0,0,1-.13-.23c0-.12,0-.18-.05-.18Zm-7.35-.72h7l-3.5-8.83Z"/><path class="cls-1" d="M290.34,15.55l-1.23,3.13h-.26a3.11,3.11,0,0,0,.07-.76.5.5,0,0,0-.29-.52,2.88,2.88,0,0,0-.92-.11H281V39.44a5.23,5.23,0,0,0,.22,1.87,1.06,1.06,0,0,0,.59.63,4,4,0,0,0,1.22.13v.27h-7v-.27a2.39,2.39,0,0,0,1.65-.51,3,3,0,0,0,.34-1.75V17.29H271.5a4.8,4.8,0,0,0-1.29.11.55.55,0,0,0-.29.57,2.53,2.53,0,0,0,.14.71h-.27l-1.23-3.13h.27a1.52,1.52,0,0,0,.62.76,4.06,4.06,0,0,0,1.32.13H288a5.67,5.67,0,0,0,1.46-.13,1.05,1.05,0,0,0,.66-.76Z"/><path class="cls-1" d="M298.45,16.44v.27a2.66,2.66,0,0,0-1.14.16,1,1,0,0,0-.74.61,10.11,10.11,0,0,0-.11,1.92V39.26a8.2,8.2,0,0,0,.13,2,1.22,1.22,0,0,0,.51.6,2.83,2.83,0,0,0,1.35.23v.27h-6.91v-.27c.86,0,1.4-.16,1.61-.5a4.91,4.91,0,0,0,.32-2.27V19.62a5.38,5.38,0,0,0-.35-2.41c-.23-.38-.76-.55-1.58-.5v-.27Z"/><path class="cls-1" d="M315.36,16.06a12.36,12.36,0,0,1,8.91,3.31,11,11,0,0,1,3.46,8.27,15.22,15.22,0,0,1-4,10.74,13.73,13.73,0,0,1-10.63,4.36,11.86,11.86,0,0,1-12.24-12A15.78,15.78,0,0,1,302.51,24a13.72,13.72,0,0,1,12.85-7.91Zm-.11,25.31a10.85,10.85,0,0,0,5.27-1.43,10.66,10.66,0,0,0,4.1-3.95,9.94,9.94,0,0,0,1.49-5.17,12.23,12.23,0,0,0-2-6.83,14.2,14.2,0,0,0-5.22-4.82A12.6,12.6,0,0,0,313,17.43a10.07,10.07,0,0,0-7,2.9,9.43,9.43,0,0,0-3.14,7.21,13.84,13.84,0,0,0,3.83,9.66Q310.49,41.37,315.25,41.37Z"/><path class="cls-1" d="M351.57,16.44h5v.27a2.29,2.29,0,0,0-1.59.48,2.86,2.86,0,0,0-.43,1.89V42.65l-20.66-22V39.81a4.89,4.89,0,0,0,.14,1.35,1.07,1.07,0,0,0,.41.6,4.57,4.57,0,0,0,1.31.31v.27h-5v-.27c.89,0,1.44-.15,1.66-.47a4.79,4.79,0,0,0,.33-2.27V21.82a9.37,9.37,0,0,0-.65-3.76c-.42-1-1.41-1.42-3-1.35v-.27H334l19.41,20.67V18.83c0-1-.18-1.58-.53-1.8a2.59,2.59,0,0,0-1.35-.32Z"/><path class="cls-1" d="M371.61,16.78,372.84,20l-.21,0s-.33-.36-1-1a6.9,6.9,0,0,0-2.23-1.57,7,7,0,0,0-2.84-.56,5.78,5.78,0,0,0-4.21,1.52,5,5,0,0,0-1.56,3.67,4.35,4.35,0,0,0,.73,2.49,6.6,6.6,0,0,0,3,2q4,1.35,5.46,2a8.46,8.46,0,0,1,2.83,2.29A6.21,6.21,0,0,1,374.24,35a8.26,8.26,0,0,1-.24,2,6.91,6.91,0,0,1-.79,1.84,8.46,8.46,0,0,1-1.31,1.62,6.11,6.11,0,0,1-1.56,1.1,8.49,8.49,0,0,1-2.5.57c-1.13.13-1.88.2-2.25.2h-6.9V34.81H359q0,3.75,1.76,5.22c1.15,1,2.93,1.48,5.36,1.48a7.24,7.24,0,0,0,5-1.56,4.94,4.94,0,0,0,1.71-3.77,4.13,4.13,0,0,0-.6-2.27,5.37,5.37,0,0,0-1.67-1.65,19.29,19.29,0,0,0-4-1.74,21.76,21.76,0,0,1-4.18-1.83,6,6,0,0,1-2-2.35,6.94,6.94,0,0,1-.81-3.2,6.83,6.83,0,0,1,2.06-5.05,7.44,7.44,0,0,1,5.43-2,19.86,19.86,0,0,1,4.5.68A.23.23,0,0,0,371.61,16.78Z"/><path class="cls-1" d="M378.11,24.9v-.09a.66.66,0,0,0,.52-.15.9.9,0,0,0,.12-.53V17.07a1.19,1.19,0,0,0-.09-.54c-.06-.11-.25-.17-.56-.18v-.09h2.31v.09a1,1,0,0,0-.45.08.46.46,0,0,0-.17.2,1.73,1.73,0,0,0,0,.5v6.06a1.41,1.41,0,0,0,.37,1.1,2,2,0,0,0,1.29.32h1a1.45,1.45,0,0,0,1.11-.38,2.21,2.21,0,0,0,.4-1.41h.09V24.9Z"/><path class="cls-1" d="M384.61,24.9v-.09a.68.68,0,0,0,.53-.15.9.9,0,0,0,.12-.53V17.07a1.05,1.05,0,0,0-.1-.54c-.06-.11-.25-.17-.56-.18v-.09h2.32v.09a.92.92,0,0,0-.45.08.36.36,0,0,0-.17.2,1.6,1.6,0,0,0-.05.5v6.06a1.38,1.38,0,0,0,.38,1.1,2,2,0,0,0,1.28.32h1a1.49,1.49,0,0,0,1.12-.38,2.22,2.22,0,0,0,.39-1.41h.09V24.9Z"/><path class="cls-1" d="M398.57,16.7l.32.91h-.08a4.06,4.06,0,0,0-2.95-1.25A3.91,3.91,0,0,0,393,17.41,3.39,3.39,0,0,0,391.92,20a5.84,5.84,0,0,0,.48,2.12,4.53,4.53,0,0,0,1.53,2,4.11,4.11,0,0,0,2.53.77,5.91,5.91,0,0,0,1.9-.31,3.05,3.05,0,0,0,1.39-.84l.08,0-.6.93c-1,.21-1.61.33-1.9.37a9.09,9.09,0,0,1-1.17.06,5.12,5.12,0,0,1-3.89-1.26,4.28,4.28,0,0,1-1.16-3,4.67,4.67,0,0,1,.6-2.27,4.28,4.28,0,0,1,1.73-1.72,5.19,5.19,0,0,1,2.58-.63,5.14,5.14,0,0,1,1.26.13,8,8,0,0,1,.88.27l.39.15Z"/><path class="cls-1" d="M185.69,45.93h-.55l-15.37-38c-1.09-2.68-2-4.24-2.69-4.7a3.94,3.94,0,0,0-2.17-.69V2.1h10v.44q-1.32-.09-1.32,1a2.74,2.74,0,0,0,.18.94l13.39,33.21L200.4,4.51a3,3,0,0,0,.27-1.07c0-.66-.51-1-1.51-.9V2.1h6.47v.44a5.61,5.61,0,0,0-1.42.19c-.5.13-1,.63-1.54,1.51s-.8,1.35-.82,1.4Z"/></g></g></svg>